<svg xmlns="http://www.w3.org/2000/svg" width="14.001" height="14" viewBox="0 0 14.001 14">
    <defs>
        <clipPath id="5ps7n4nsxa">
            <path data-name="Rectangle 5697" style="fill:#00917c" d="M0 0h14.001v14H0z"/>
        </clipPath>
    </defs>
    <g data-name="Group 20865">
        <g data-name="Group 20866">
            <g data-name="Group 20865" style="clip-path:url(#5ps7n4nsxa)">
                <path data-name="Path 17797" d="M14 7c0-3.87-.18-7-7-7S0 3.13 0 7s-.189 7 7 7 7-3.13 7-7" style="fill:#00917c"/>
            </g>
        </g>
        <path data-name="Path 10546" d="M-47.145 377.382h-5.8a.224.224 0 0 0-.224.224v.538a.225.225 0 0 0 .224.224h5.8a.224.224 0 0 0 .224-.224v-.544a.223.223 0 0 0-.224-.218zm1.087-3.151a.471.471 0 0 0-.47-.472.473.473 0 0 0-.472.471.474.474 0 0 0 .176.368l-.622.622a.834.834 0 0 1-.592.245.844.844 0 0 1-.671-.336l-1.008-1.347a.471.471 0 0 0-.007-.666.471.471 0 0 0-.667.008.472.472 0 0 0 0 .658l-1.015 1.349a.838.838 0 0 1-1.173.164 1.152 1.152 0 0 1-.091-.079l-.618-.622a.471.471 0 0 0 .061-.664.471.471 0 0 0-.663-.061.472.472 0 0 0-.061.664.477.477 0 0 0 .223.149.265.265 0 0 0 .006.068l.493 1.98a.225.225 0 0 0 .218.17h2.962l2.961-.018a.224.224 0 0 0 .216-.17l.493-1.974a.191.191 0 0 0 .006-.067.472.472 0 0 0 .315-.44z" transform="translate(57.06 -368.982)" style="fill:#fff"/>
    </g>
</svg>
