<svg width="94" height="95" viewBox="0 0 94 95" fill="none" xmlns="http://www.w3.org/2000/svg">
<g filter="url(#filter0_d_3484_2284)">
<rect x="5.50195" y="3.7749" width="83" height="84" rx="24" fill="white"/>
</g>
<rect x="20.4684" y="26.8249" width="48.535" height="40.9764" rx="4.39938" fill="#FEEFF7" stroke="#FFA7D6" stroke-width="2.93292"/>
<path d="M75.0025 63.1963V31.3438C75.0025 25.3791 70.1672 20.5438 64.2025 20.5438H27.4375" stroke="#FFA7D6" stroke-width="2.93292" stroke-linecap="round"/>
<path d="M41.8886 46.1088C43.0554 46.1088 44.1744 45.6453 44.9994 44.8203C45.8245 43.9952 46.288 42.8762 46.288 41.7094C46.288 40.5427 45.8245 39.4237 44.9994 38.5986C44.1744 37.7736 43.0554 37.3101 41.8886 37.3101C40.7218 37.3101 39.6028 37.7736 38.7778 38.5986C37.9527 39.4237 37.4892 40.5427 37.4892 41.7094C37.4892 42.8762 37.9527 43.9952 38.7778 44.8203C39.6028 45.6453 40.7218 46.1088 41.8886 46.1088ZM41.8886 49.0418C44.2222 49.0418 46.4602 49.9688 48.1103 51.6189C49.7604 53.2689 50.6874 55.5069 50.6874 57.8405H33.0898C33.0898 55.5069 34.0169 53.2689 35.6669 51.6189C37.317 49.9688 39.555 49.0418 41.8886 49.0418ZM53.6203 43.1759C53.6203 42.787 53.4658 42.414 53.1908 42.139C52.9158 41.8639 52.5428 41.7094 52.1538 41.7094C51.7649 41.7094 51.3919 41.8639 51.1169 42.139C50.8419 42.414 50.6874 42.787 50.6874 43.1759V44.6424H49.2209C48.832 44.6424 48.459 44.7969 48.184 45.0719C47.909 45.3469 47.7545 45.7199 47.7545 46.1088C47.7545 46.4978 47.909 46.8708 48.184 47.1458C48.459 47.4208 48.832 47.5753 49.2209 47.5753H50.6874V49.0418C50.6874 49.4307 50.8419 49.8037 51.1169 50.0787C51.3919 50.3537 51.7649 50.5082 52.1538 50.5082C52.5428 50.5082 52.9158 50.3537 53.1908 50.0787C53.4658 49.8037 53.6203 49.4307 53.6203 49.0418V47.5753H55.0868C55.4757 47.5753 55.8487 47.4208 56.1237 47.1458C56.3987 46.8708 56.5532 46.4978 56.5532 46.1088C56.5532 45.7199 56.3987 45.3469 56.1237 45.0719C55.8487 44.7969 55.4757 44.6424 55.0868 44.6424H53.6203V43.1759Z" fill="#FF58B1"/>
<defs>
<filter id="filter0_d_3484_2284" x="0.501953" y="0.774902" width="93" height="94" filterUnits="userSpaceOnUse" color-interpolation-filters="sRGB">
<feFlood flood-opacity="0" result="BackgroundImageFix"/>
<feColorMatrix in="SourceAlpha" type="matrix" values="0 0 0 0 0 0 0 0 0 0 0 0 0 0 0 0 0 0 127 0" result="hardAlpha"/>
<feOffset dy="2"/>
<feGaussianBlur stdDeviation="2.5"/>
<feColorMatrix type="matrix" values="0 0 0 0 0.473529 0 0 0 0 0.0117647 0 0 0 0 0.627451 0 0 0 0.2 0"/>
<feBlend mode="normal" in2="BackgroundImageFix" result="effect1_dropShadow_3484_2284"/>
<feBlend mode="normal" in="SourceGraphic" in2="effect1_dropShadow_3484_2284" result="shape"/>
</filter>
</defs>
</svg>
