<svg width="94" height="95" viewBox="0 0 94 95" fill="none" xmlns="http://www.w3.org/2000/svg">
<g filter="url(#filter0_d_3484_2385)">
<rect x="5.60938" y="3.95117" width="83" height="84" rx="24" fill="white"/>
</g>
<path d="M76.7712 41.4155L64.7039 32.1236V22.4406C64.7039 21.2548 63.7403 20.292 62.5554 20.292C61.3713 20.292 60.4076 21.2548 60.4076 22.4406V28.8154L49.9197 20.7379C49.147 20.1442 48.0718 20.1442 47.2982 20.7379L20.4468 41.4155C19.5068 42.1385 19.3319 43.4873 20.0557 44.4273C20.7779 45.3664 22.1275 45.5413 23.0675 44.8183L25.4264 43.0025V67.4621C25.4264 68.647 26.3892 69.6098 27.575 69.6098H69.3753C70.5602 69.6098 71.523 68.647 71.523 67.4621V42.7947L74.1496 44.8183C74.5407 45.119 75.0009 45.2651 75.4595 45.2651C76.104 45.2651 76.7408 44.9771 77.1639 44.4273C77.8852 43.4873 77.7103 42.1385 76.7712 41.4155ZM44.1885 41.8488C45.6386 41.8488 46.8126 43.0253 46.8126 44.4737C46.8126 45.9247 45.6378 47.0995 44.1885 47.0995C42.7392 47.0995 41.5627 45.9222 41.5627 44.4737C41.5627 43.0253 42.7384 41.8488 44.1885 41.8488ZM37.5046 46.8326C38.9547 46.8326 40.1295 48.0091 40.1295 49.4567C40.1295 50.9043 38.9538 52.0808 37.5046 52.0808C36.0536 52.0808 34.8796 50.9034 34.8796 49.4567C34.8796 48.0057 36.0544 46.8326 37.5046 46.8326ZM39.9006 57.6997C39.9006 57.6997 39.8989 57.6997 39.8972 57.6997H39.589L39.9302 59.067C39.9564 59.1743 39.9327 59.2875 39.8651 59.3728C39.7967 59.4606 39.6928 59.5113 39.5822 59.5113H39.04L38.8542 61.8203C38.839 62.0087 38.6844 62.1506 38.4969 62.1506H36.5097C36.323 62.1506 36.1685 62.0087 36.1533 61.8203L35.9683 59.5113H35.4252C35.3146 59.5113 35.2107 59.4589 35.1431 59.3728C35.0756 59.2866 35.0519 59.1743 35.079 59.067L35.4202 57.6997H35.1119C35.0114 57.6997 34.916 57.6583 34.8484 57.5848C34.7808 57.5088 34.747 57.4125 34.7546 57.3137L35.1127 52.8611C35.1288 52.6736 35.2842 52.5301 35.4708 52.5301H39.5408C39.7275 52.5301 39.882 52.6736 39.8972 52.8611L40.2503 57.2428C40.2587 57.2749 40.2638 57.3078 40.2638 57.3424C40.2629 57.5401 40.1126 57.6955 39.9006 57.6997ZM47.3109 55.0959C47.2433 55.1677 47.1496 55.2099 47.0499 55.2099H46.4376L46.9173 57.1913C46.9384 57.2394 46.9502 57.2884 46.9502 57.345C46.9502 57.5426 46.7906 57.6988 46.5888 57.7031C46.5871 57.7031 46.5862 57.7031 46.5845 57.7031H45.9992L45.7476 61.8195C45.7357 62.0104 45.5795 62.1539 45.3895 62.1539H43.0365C42.8465 62.1539 42.6911 62.007 42.6792 61.8195L42.4267 57.7031H41.8414C41.7316 57.7031 41.6286 57.6515 41.5602 57.5662C41.4918 57.4809 41.4681 57.3686 41.4935 57.263L41.9892 55.2124H41.3769C41.2789 55.2124 41.1835 55.171 41.1159 55.0984C41.0484 55.0266 41.0129 54.932 41.0197 54.8332L41.4436 47.8866C41.4555 47.6983 41.6117 47.5522 41.8017 47.5522H46.6234C46.8134 47.5522 46.9688 47.7017 46.9806 47.8866L47.4055 54.8332C47.4131 54.927 47.3776 55.0241 47.3109 55.0959ZM59.7117 46.6536C61.1635 46.6536 62.3375 47.83 62.3375 49.2785C62.3375 50.7269 61.1601 51.9017 59.7117 51.9017C58.2633 51.9017 57.0876 50.7269 57.0876 49.2785C57.0876 47.83 58.2616 46.6536 59.7117 46.6536ZM53.0294 41.8488C54.4796 41.8488 55.6535 43.0253 55.6535 44.4737C55.6535 45.9247 54.4779 47.0995 53.0294 47.0995C51.5793 47.0995 50.4054 45.9222 50.4054 44.4737C50.402 43.0253 51.5785 41.8488 53.0294 41.8488ZM56.124 55.0959C56.0581 55.1677 55.9643 55.2099 55.863 55.2099H54.966L54.5615 61.8161C54.5505 62.0061 54.3951 62.1506 54.2042 62.1506H51.8513C51.6604 62.1506 51.505 62.0036 51.4923 61.8161L51.0878 55.2099H50.1908C50.0929 55.2099 49.9974 55.1677 49.9282 55.0959C49.8606 55.0241 49.826 54.9278 49.8328 54.8307L50.2567 47.8841C50.2694 47.6949 50.4248 47.5496 50.6148 47.5496H55.4373C55.6273 47.5496 55.7827 47.6983 55.7954 47.8841L56.2194 54.8307C56.227 54.927 56.1924 55.0241 56.124 55.0959ZM62.3679 57.5848C62.3003 57.6583 62.2049 57.6997 62.1044 57.6997H61.3932L61.0613 61.8246C61.0436 62.0112 60.8916 62.1548 60.7032 62.1548H58.7151C58.5268 62.1548 58.3739 62.0112 58.3587 61.8246L58.0242 57.6997H57.3123C57.2126 57.6997 57.118 57.6583 57.0488 57.5848C56.9812 57.5088 56.9466 57.4125 56.955 57.3137L57.3131 52.8611C57.3292 52.6736 57.4846 52.5301 57.6712 52.5301H61.7403C61.927 52.5301 62.0816 52.6736 62.0968 52.8611L62.4548 57.3137C62.4692 57.4125 62.4346 57.5088 62.3679 57.5848Z" fill="#FFA825"/>
<defs>
<filter id="filter0_d_3484_2385" x="0.609375" y="0.951172" width="93" height="94" filterUnits="userSpaceOnUse" color-interpolation-filters="sRGB">
<feFlood flood-opacity="0" result="BackgroundImageFix"/>
<feColorMatrix in="SourceAlpha" type="matrix" values="0 0 0 0 0 0 0 0 0 0 0 0 0 0 0 0 0 0 127 0" result="hardAlpha"/>
<feOffset dy="2"/>
<feGaussianBlur stdDeviation="2.5"/>
<feColorMatrix type="matrix" values="0 0 0 0 0.473529 0 0 0 0 0.0117647 0 0 0 0 0.627451 0 0 0 0.2 0"/>
<feBlend mode="normal" in2="BackgroundImageFix" result="effect1_dropShadow_3484_2385"/>
<feBlend mode="normal" in="SourceGraphic" in2="effect1_dropShadow_3484_2385" result="shape"/>
</filter>
</defs>
</svg>
