<svg width="94" height="95" viewBox="0 0 94 95" fill="none" xmlns="http://www.w3.org/2000/svg">
<g filter="url(#filter0_d_3484_2516)">
<rect x="5.24219" y="3.95117" width="83" height="84" rx="24" fill="white"/>
</g>
<path d="M48.4291 56.2507C47.5614 57.1087 46.5172 57.7673 45.3691 58.1807C45.4486 59.7764 45.1953 61.3711 44.6255 62.8637C44.0557 64.3563 43.1817 65.714 42.0591 66.8507C37.3791 71.5407 29.4591 71.2207 24.3891 66.1507C24.1491 65.9107 23.9291 65.6707 23.7091 65.4207C22.0457 63.5873 20.9475 61.3122 20.5466 58.8693C20.1456 56.4264 20.459 53.9197 21.4491 51.6507L22.6491 49.6507C22.9622 49.232 23.3065 48.8375 23.6791 48.4707C24.8173 47.3473 26.1767 46.4728 27.671 45.903C29.1653 45.3331 30.7618 45.0804 32.3591 45.1607C32.765 44.0113 33.4207 42.9662 34.2791 42.1007C35.7437 40.7363 37.6143 39.8883 39.6058 39.6861C41.5972 39.4839 43.6001 39.9386 45.3091 40.9807L49.5091 45.1807L49.5491 45.2207C50.5913 46.9297 51.046 48.9326 50.8437 50.9241C50.6415 52.9155 49.7935 54.7862 48.4291 56.2507Z" fill="#FEC4CF"/>
<path d="M23.7097 65.4204C23.9297 65.6704 24.1497 65.9104 24.3897 66.1504L23.6797 65.4404L23.7097 65.4204Z" fill="#FB728B"/>
<path d="M51.2587 59.0807C50.3932 59.939 49.3481 60.5948 48.1987 61.0007C48.279 62.5979 48.0263 64.1944 47.4564 65.6887C46.8866 67.183 46.0122 68.5425 44.8887 69.6807C40.2087 74.3707 32.2887 74.0507 27.2087 68.9707L24.3887 66.1507C29.4587 71.2207 37.3787 71.5407 42.0587 66.8507C43.1813 65.7139 44.0553 64.3562 44.6251 62.8636C45.1949 61.3711 45.4481 59.7763 45.3687 58.1807C46.5167 57.7672 47.561 57.1086 48.4287 56.2507C49.6127 55.0094 50.4141 53.4533 50.7369 51.7685C51.0596 50.0837 50.8901 48.3416 50.2487 46.7507C50.0567 46.2227 49.8226 45.7111 49.5487 45.2207L49.8387 44.9307L50.5487 45.6407C51.0217 46.1136 51.4502 46.6291 51.8287 47.1807C54.4687 51.0007 54.3387 56.0007 51.2587 59.0807Z" fill="#FB8B9D"/>
<path d="M49.8378 44.9307L49.5478 45.2207L49.5078 45.1807L49.8378 44.9307Z" fill="#FB728B"/>
<path d="M61.8594 32.9104L41.3594 53.4204L41.3494 53.4104C41.2044 52.3403 40.7085 51.3485 39.9394 50.5904C39.1709 49.8301 38.1791 49.336 37.1094 49.1804L57.6194 28.6704L61.8594 32.9104Z" fill="#FF7B93"/>
<path d="M39.9388 57.6606C39.0011 58.5979 37.7296 59.1245 36.4038 59.1245C35.0779 59.1245 33.8064 58.5979 32.8688 57.6606C32.3534 57.1443 31.9604 56.5189 31.7188 55.8306C31.4206 55.0206 31.338 54.1471 31.4791 53.2957C31.6202 52.4442 31.9801 51.644 32.5236 50.9735C33.067 50.303 33.7753 49.7853 34.5791 49.471C35.383 49.1566 36.2546 49.0566 37.1088 49.1806C37.4467 49.2284 37.7786 49.3122 38.0988 49.4306C38.7888 49.6796 39.4166 50.0754 39.9388 50.5906C40.7079 51.3486 41.2038 52.3404 41.3488 53.4106C41.4625 54.1799 41.3942 54.9652 41.1493 55.7033C40.9044 56.4414 40.4898 57.1118 39.9388 57.6606Z" fill="#FEA6B6"/>
<path d="M70.7078 26.8906L64.6878 32.9106C64.5021 33.0966 64.2815 33.2441 64.0387 33.3448C63.7959 33.4454 63.5357 33.4972 63.2728 33.4972C63.01 33.4972 62.7497 33.4454 62.5069 33.3448C62.2641 33.2441 62.0436 33.0966 61.8578 32.9106L61.8478 32.9006L57.6178 28.6706C57.4319 28.4849 57.2844 28.2643 57.1837 28.0215C57.0831 27.7787 57.0312 27.5185 57.0312 27.2556C57.0312 26.9928 57.0831 26.7326 57.1837 26.4898C57.2844 26.247 57.4319 26.0264 57.6178 25.8406L63.6378 19.8206C63.9163 19.5422 64.294 19.3857 64.6878 19.3857C65.0816 19.3857 65.4593 19.5422 65.7378 19.8206L70.5078 24.5906L70.7078 24.7906C70.9863 25.0691 71.1427 25.4468 71.1427 25.8406C71.1427 26.2345 70.9863 26.6121 70.7078 26.8906Z" fill="#FCC5CF"/>
<path d="M70.5194 24.5908L70.7094 24.7908L70.5094 24.5908H70.5194ZM72.6194 29.2208L66.8094 35.0308C66.6236 35.2168 66.4031 35.3643 66.1603 35.4649C65.9175 35.5656 65.6572 35.6174 65.3944 35.6174C65.1315 35.6174 64.8713 35.5656 64.6285 35.4649C64.3857 35.3643 64.1651 35.2168 63.9794 35.0308L61.8594 32.9108C62.0451 33.0968 62.2657 33.2443 62.5085 33.3449C62.7513 33.4456 63.0115 33.4974 63.2744 33.4974C63.5372 33.4974 63.7975 33.4456 64.0403 33.3449C64.2831 33.2443 64.5036 33.0968 64.6894 32.9108L70.7094 26.8908C70.9878 26.6123 71.1443 26.2346 71.1443 25.8408C71.1443 25.447 70.9878 25.0693 70.7094 24.7908L72.8294 26.9108C73.1054 27.246 73.2381 27.6765 73.1988 28.1089C73.1595 28.5414 72.9513 28.9409 72.6194 29.2208Z" fill="#FB728B"/>
<path d="M61.8616 22.5985C61.5965 22.5987 61.3422 22.4937 61.1546 22.3065L59.7406 20.8915C59.5584 20.7029 59.4576 20.4503 59.4599 20.1881C59.4622 19.9259 59.5673 19.6751 59.7528 19.4897C59.9382 19.3043 60.189 19.1991 60.4512 19.1968C60.7134 19.1945 60.966 19.2953 61.1546 19.4775L62.5686 20.8915C62.7084 21.0313 62.8036 21.2095 62.8422 21.4035C62.8807 21.5974 62.8609 21.7984 62.7852 21.9811C62.7096 22.1638 62.5814 22.32 62.417 22.4299C62.2526 22.5398 62.0593 22.5984 61.8616 22.5985ZM70.3466 31.0845C70.0814 31.0844 69.8271 30.979 69.6396 30.7915L68.2256 29.3765C68.0434 29.1879 67.9426 28.9353 67.9449 28.6731C67.9472 28.4109 68.0523 28.1601 68.2378 27.9747C68.4232 27.7893 68.674 27.6841 68.9362 27.6818C69.1984 27.6795 69.451 27.7803 69.6396 27.9625L71.0536 29.3775C71.1934 29.5173 71.2886 29.6955 71.3272 29.8895C71.3657 30.0834 71.3459 30.2844 71.2702 30.4671C71.1946 30.6498 71.0664 30.806 70.902 30.9159C70.7376 31.0258 70.5443 31.0844 70.3466 31.0845ZM59.0326 25.4275C58.7674 25.4274 58.5131 25.322 58.3256 25.1345L56.9116 23.7205C56.7294 23.5319 56.6286 23.2793 56.6309 23.0171C56.6332 22.7549 56.7383 22.5041 56.9238 22.3187C57.1092 22.1333 57.36 22.0281 57.6222 22.0258C57.8844 22.0235 58.137 22.1243 58.3256 22.3065L59.7406 23.7205C59.8804 23.8604 59.9757 24.0387 60.0142 24.2327C60.0527 24.4267 60.0329 24.6279 59.9571 24.8106C59.8813 24.9933 59.753 25.1495 59.5884 25.2593C59.4238 25.3691 59.2304 25.4276 59.0326 25.4275ZM67.5196 33.9125C67.2544 33.9124 67.0001 33.807 66.8126 33.6195L65.3986 32.2055C65.2164 32.0169 65.1156 31.7643 65.1179 31.5021C65.1202 31.2399 65.2253 30.9891 65.4108 30.8037C65.5962 30.6183 65.847 30.5131 66.1092 30.5108C66.3714 30.5085 66.624 30.6093 66.8126 30.7915L68.2266 32.2055C68.3664 32.3453 68.4616 32.5235 68.5002 32.7175C68.5387 32.9114 68.5189 33.1124 68.4432 33.2951C68.3676 33.4778 68.2394 33.634 68.075 33.7439C67.9106 33.8538 67.7173 33.9124 67.5196 33.9125ZM62.5696 23.7205L63.9846 22.3055L65.3986 23.7205L63.9846 25.1345L62.5696 23.7205ZM59.7396 26.5485L61.1546 25.1345L62.5686 26.5485L61.1546 27.9625L59.7396 26.5485ZM65.3976 26.5485L66.8116 25.1345L68.2256 26.5485L66.8116 27.9625L65.3976 26.5485ZM62.5696 29.3775L63.9836 27.9635L65.3976 29.3775L63.9836 30.7915L62.5696 29.3775Z" fill="#F8B8B8"/>
<path d="M63.9779 35.0306L60.7279 38.2906L59.3479 39.6606L51.8279 47.1806C51.4494 46.6291 51.0209 46.1136 50.5479 45.6406L49.8379 44.9306L61.8579 32.9106L63.9779 35.0306Z" fill="#FA506F"/>
<path d="M33.5922 66.9568C32.9461 66.9566 32.3015 66.8947 31.6672 66.7718C31.4068 66.7213 31.1771 66.5694 31.0287 66.3495C30.8802 66.1296 30.8252 65.8597 30.8757 65.5993C30.9263 65.3389 31.0782 65.1091 31.2981 64.9607C31.5179 64.8123 31.7878 64.7573 32.0482 64.8078C34.065 65.2038 36.1568 64.8058 37.8872 63.6968C37.9977 63.6233 38.1218 63.5725 38.2521 63.5474C38.3824 63.5222 38.5164 63.5233 38.6463 63.5506C38.7762 63.5778 38.8994 63.6306 39.0087 63.7059C39.118 63.7812 39.2112 63.8775 39.2829 63.9892C39.3546 64.1009 39.4033 64.2258 39.4262 64.3565C39.4492 64.4872 39.4458 64.6212 39.4165 64.7507C39.3871 64.8801 39.3322 65.0024 39.2551 65.1104C39.178 65.2184 39.0801 65.31 38.9672 65.3798C37.3639 66.4102 35.4981 66.9576 33.5922 66.9568Z" fill="#F6788E"/>
<path d="M32.1094 31.9102C33.7662 31.9102 35.1094 31.0147 35.1094 29.9102C35.1094 28.8056 33.7662 27.9102 32.1094 27.9102C30.4525 27.9102 29.1094 28.8056 29.1094 29.9102C29.1094 31.0147 30.4525 31.9102 32.1094 31.9102Z" fill="#FB728B"/>
<path d="M32.1094 32.9102C29.8664 32.9102 28.1094 31.5922 28.1094 29.9102C28.1094 28.2282 29.8664 26.9102 32.1094 26.9102C34.3524 26.9102 36.1094 28.2282 36.1094 29.9102C36.1094 31.5922 34.3524 32.9102 32.1094 32.9102ZM32.1094 28.9102C30.8884 28.9102 30.1094 29.5022 30.1094 29.9102C30.1094 30.3182 30.8884 30.9102 32.1094 30.9102C33.3304 30.9102 34.1094 30.3182 34.1094 29.9102C34.1094 29.5022 33.3304 28.9102 32.1094 28.9102Z" fill="#FB728B"/>
<path d="M35.1094 30.9104C34.8442 30.9104 34.5898 30.805 34.4023 30.6175C34.2147 30.4299 34.1094 30.1756 34.1094 29.9104V19.9104C34.1093 19.6798 34.1889 19.4564 34.3347 19.2778C34.4805 19.0992 34.6835 18.9765 34.9094 18.9304L44.9094 16.9304C45.0547 16.9007 45.2048 16.9037 45.3488 16.9392C45.4928 16.9747 45.627 17.0418 45.7419 17.1356C45.8568 17.2294 45.9493 17.3476 46.0129 17.4816C46.0764 17.6156 46.1094 17.7621 46.1094 17.9104V27.9104C46.1094 28.1756 46.004 28.4299 45.8165 28.6175C45.6289 28.805 45.3746 28.9104 45.1094 28.9104C44.8442 28.9104 44.5898 28.805 44.4023 28.6175C44.2147 28.4299 44.1094 28.1756 44.1094 27.9104V19.1304L36.1094 20.7304V29.9104C36.1094 30.1756 36.004 30.4299 35.8165 30.6175C35.6289 30.805 35.3746 30.9104 35.1094 30.9104Z" fill="#FB728B"/>
<path d="M42.1094 29.9102C43.7662 29.9102 45.1094 29.0147 45.1094 27.9102C45.1094 26.8056 43.7662 25.9102 42.1094 25.9102C40.4525 25.9102 39.1094 26.8056 39.1094 27.9102C39.1094 29.0147 40.4525 29.9102 42.1094 29.9102Z" fill="#FB728B"/>
<path d="M42.1094 30.9102C39.8664 30.9102 38.1094 29.5922 38.1094 27.9102C38.1094 26.2282 39.8664 24.9102 42.1094 24.9102C44.3524 24.9102 46.1094 26.2282 46.1094 27.9102C46.1094 29.5922 44.3524 30.9102 42.1094 30.9102ZM42.1094 26.9102C40.8884 26.9102 40.1094 27.5022 40.1094 27.9102C40.1094 28.3182 40.8884 28.9102 42.1094 28.9102C43.3304 28.9102 44.1094 28.3182 44.1094 27.9102C44.1094 27.5022 43.3304 26.9102 42.1094 26.9102Z" fill="#FB728B"/>
<defs>
<filter id="filter0_d_3484_2516" x="0.242188" y="0.951172" width="93" height="94" filterUnits="userSpaceOnUse" color-interpolation-filters="sRGB">
<feFlood flood-opacity="0" result="BackgroundImageFix"/>
<feColorMatrix in="SourceAlpha" type="matrix" values="0 0 0 0 0 0 0 0 0 0 0 0 0 0 0 0 0 0 127 0" result="hardAlpha"/>
<feOffset dy="2"/>
<feGaussianBlur stdDeviation="2.5"/>
<feColorMatrix type="matrix" values="0 0 0 0 0.473529 0 0 0 0 0.0117647 0 0 0 0 0.627451 0 0 0 0.2 0"/>
<feBlend mode="normal" in2="BackgroundImageFix" result="effect1_dropShadow_3484_2516"/>
<feBlend mode="normal" in="SourceGraphic" in2="effect1_dropShadow_3484_2516" result="shape"/>
</filter>
</defs>
</svg>
