<svg width="94" height="95" viewBox="0 0 94 95" fill="none" xmlns="http://www.w3.org/2000/svg">
<g filter="url(#filter0_d_3484_2416)">
<rect x="5.89844" y="3.49316" width="83" height="84" rx="24" fill="white"/>
</g>
<path d="M78.1825 64.8384H73.082V64.8769H78.1825V64.8384Z" fill="#CFFFD8"/>
<path d="M59.9066 65.2573H58.5684V65.2958H59.9066V65.2573Z" fill="#CFFFD8"/>
<path d="M72.9279 63.4097H69.9727V63.4482H72.9279V63.4097Z" fill="#CFFFD8"/>
<path d="M23.6278 63.6685H16.9766V63.707H23.6278V63.6685Z" fill="#CFFFD8"/>
<path d="M25.9748 63.6685H25V63.707H25.9748V63.6685Z" fill="#CFFFD8"/>
<path d="M43.5713 64.3179H29.1445V64.3564H43.5713V64.3179Z" fill="#CFFFD8"/>
<path d="M85.8984 62.3608H8.89844V62.3993H85.8984V62.3608Z" fill="#CFFFD8"/>
<path d="M52.4772 62.3745H77.0371V42.1974H52.4772V62.3745Z" fill="url(#paint0_linear_3484_2416)"/>
<path d="M52.4766 42.6119H78.0298L73.4822 36.6567H52.4766V42.6119Z" fill="#489EA6"/>
<path d="M70.875 56.3519C70.875 55.8112 71.0898 55.2926 71.4722 54.9102C71.8546 54.5278 72.3732 54.313 72.914 54.313C73.4547 54.313 73.9733 54.5278 74.3557 54.9102C74.7381 55.2926 74.9529 55.8112 74.9529 56.3519V61.3831H70.875V56.3519Z" fill="#3EADB8"/>
<path d="M63.7012 56.3519C63.7012 55.8112 63.916 55.2926 64.2984 54.9102C64.6808 54.5278 65.1994 54.313 65.7401 54.313C66.2809 54.313 66.7995 54.5278 67.1819 54.9102C67.5643 55.2926 67.7791 55.8112 67.7791 56.3519V61.3831H63.7012V56.3519Z" fill="#3EADB8"/>
<path d="M56.5262 56.3518C56.5187 56.0795 56.5659 55.8083 56.6649 55.5545C56.764 55.3007 56.9129 55.0693 57.1029 54.874C57.2929 54.6787 57.5201 54.5234 57.7712 54.4174C58.0222 54.3114 58.2919 54.2568 58.5644 54.2568C58.8368 54.2568 59.1065 54.3114 59.3576 54.4174C59.6086 54.5234 59.8358 54.6787 60.0258 54.874C60.2158 55.0693 60.3647 55.3007 60.4638 55.5545C60.5628 55.8083 60.61 56.0795 60.6025 56.3518V61.383H56.5262V56.3518Z" fill="#3EADB8"/>
<path d="M70.875 45.4179C70.875 44.8771 71.0898 44.3585 71.4722 43.9761C71.8546 43.5937 72.3732 43.3789 72.914 43.3789C73.4547 43.3789 73.9733 43.5937 74.3557 43.9761C74.7381 44.3585 74.9529 44.8771 74.9529 45.4179V50.449H70.875V45.4179Z" fill="#3EADB8"/>
<path d="M63.7012 45.4179C63.7012 44.8771 63.916 44.3585 64.2984 43.9761C64.6808 43.5937 65.1994 43.3789 65.7401 43.3789C66.2809 43.3789 66.7995 43.5937 67.1819 43.9761C67.5643 44.3585 67.7791 44.8771 67.7791 45.4179V50.449H63.7012V45.4179Z" fill="#3EADB8"/>
<path d="M56.5262 45.4177C56.5187 45.1454 56.5659 44.8743 56.6649 44.6204C56.764 44.3666 56.9129 44.1352 57.1029 43.9399C57.2929 43.7446 57.5201 43.5894 57.7712 43.4834C58.0222 43.3774 58.2919 43.3228 58.5644 43.3228C58.8368 43.3228 59.1065 43.3774 59.3576 43.4834C59.6086 43.5894 59.8358 43.7446 60.0258 43.9399C60.2158 44.1352 60.3647 44.3666 60.4638 44.6204C60.5628 44.8743 60.61 45.1454 60.6025 45.4177V50.4489H56.5262V45.4177Z" fill="#3EADB8"/>
<path d="M77.5293 51.7141V51.8706H53.9494V51.7141H77.5293Z" fill="#ABCDAF" stroke="#A3C8CC"/>
<path d="M42.5443 42.1978H17.9844V62.3748H42.5443V42.1978Z" fill="url(#paint1_linear_3484_2416)"/>
<path d="M42.5454 42.6119H16.9922L21.5398 36.6567H42.5454V42.6119Z" fill="#489EA6"/>
<path d="M24.1443 56.3519C24.1443 55.8112 23.9295 55.2926 23.5471 54.9102C23.1648 54.5278 22.6461 54.313 22.1054 54.313C21.5646 54.313 21.046 54.5278 20.6636 54.9102C20.2812 55.2926 20.0664 55.8112 20.0664 56.3519V61.3831H24.1443V56.3519Z" fill="#3EADB8"/>
<path d="M31.3201 56.3519C31.3201 55.8112 31.1053 55.2926 30.7229 54.9102C30.3405 54.5278 29.8219 54.313 29.2811 54.313C28.7404 54.313 28.2218 54.5278 27.8394 54.9102C27.457 55.2926 27.2422 55.8112 27.2422 56.3519V61.3831H31.3201V56.3519Z" fill="#3EADB8"/>
<path d="M38.4951 56.3518C38.5026 56.0795 38.4554 55.8083 38.3564 55.5545C38.2573 55.3007 38.1084 55.0693 37.9184 54.874C37.7284 54.6787 37.5011 54.5234 37.2501 54.4174C36.9991 54.3114 36.7294 54.2568 36.4569 54.2568C36.1845 54.2568 35.9147 54.3114 35.6637 54.4174C35.4127 54.5234 35.1855 54.6787 34.9955 54.874C34.8055 55.0693 34.6566 55.3007 34.5575 55.5545C34.4584 55.8083 34.4113 56.0795 34.4187 56.3518V61.383H38.4951V56.3518Z" fill="#3EADB8"/>
<path d="M24.1443 45.4179C24.1443 44.8771 23.9295 44.3585 23.5471 43.9761C23.1648 43.5937 22.6461 43.3789 22.1054 43.3789C21.5646 43.3789 21.046 43.5937 20.6636 43.9761C20.2812 44.3585 20.0664 44.8771 20.0664 45.4179V50.449H24.1443V45.4179Z" fill="#3EADB8"/>
<path d="M31.3201 45.4179C31.3201 44.8771 31.1053 44.3585 30.7229 43.9761C30.3405 43.5937 29.8219 43.3789 29.2811 43.3789C28.7404 43.3789 28.2218 43.5937 27.8394 43.9761C27.457 44.3585 27.2422 44.8771 27.2422 45.4179V50.449H31.3201V45.4179Z" fill="#3EADB8"/>
<path d="M38.4951 45.4177C38.5026 45.1454 38.4554 44.8743 38.3564 44.6204C38.2573 44.3666 38.1084 44.1352 37.9184 43.9399C37.7284 43.7446 37.5011 43.5894 37.2501 43.4834C36.9991 43.3774 36.7294 43.3228 36.4569 43.3228C36.1845 43.3228 35.9147 43.3774 35.6637 43.4834C35.4127 43.5894 35.1855 43.7446 34.9955 43.9399C34.8055 44.1352 34.6566 44.3666 34.5575 44.6204C34.4584 44.8743 34.4113 45.1454 34.4187 45.4177V50.4489H38.4951V45.4177Z" fill="#3EADB8"/>
<path d="M17.4922 51.8724V51.7158H41.0721V51.8724H17.4922Z" fill="#ABCDAF" stroke="#A3C8CC"/>
<path d="M55.1968 44.4951H39.8984V62.3761H55.1968V44.4951Z" fill="url(#paint2_linear_3484_2416)"/>
<path d="M53.2953 44.4547H53.7953V43.9547V30.5197V30.2928L53.6245 30.1434L47.8772 25.1168L47.5481 24.8289L47.2189 25.1168L41.4716 30.1434L41.3008 30.2928V30.5197V43.9547V44.4547H41.8008H53.2953Z" fill="url(#paint3_linear_3484_2416)" stroke="#A3C8CC"/>
<path d="M51.1715 53.4347C51.1519 52.4868 50.7617 51.5843 50.0844 50.9208C49.4071 50.2573 48.4967 49.8857 47.5486 49.8857C46.6005 49.8857 45.6902 50.2573 45.0129 50.9208C44.3356 51.5843 43.9453 52.4868 43.9258 53.4347V62.3744H51.1715V53.4347Z" fill="#3EADB8"/>
<path d="M39.7383 44.0984V43.9419H55.3595V44.0984H39.7383Z" fill="#ABCDAF" stroke="#A3C8CC"/>
<path d="M47.5469 35.6646C49.4648 35.6646 51.0196 34.1099 51.0196 32.1919C51.0196 30.274 49.4648 28.7192 47.5469 28.7192C45.629 28.7192 44.0742 30.274 44.0742 32.1919C44.0742 34.1099 45.629 35.6646 47.5469 35.6646Z" fill="#67AFB6"/>
<path d="M47.6781 32.9419H47.0898L47.1776 29.6078C47.1792 29.5546 47.2015 29.5041 47.2398 29.467C47.278 29.4299 47.3292 29.4092 47.3824 29.4092C47.4357 29.4088 47.4869 29.4294 47.525 29.4666C47.5631 29.5039 47.5849 29.5546 47.5857 29.6078L47.6781 32.9419Z" fill="#FAFAFA"/>
<path d="M47.0898 32.9421V32.3569L49.4445 32.4447C49.523 32.4447 49.5846 32.5387 49.5846 32.6495C49.5846 32.7604 49.523 32.8497 49.4445 32.8528L47.0898 32.9421Z" fill="#FAFAFA"/>
<defs>
<filter id="filter0_d_3484_2416" x="0.898438" y="0.493164" width="93" height="94" filterUnits="userSpaceOnUse" color-interpolation-filters="sRGB">
<feFlood flood-opacity="0" result="BackgroundImageFix"/>
<feColorMatrix in="SourceAlpha" type="matrix" values="0 0 0 0 0 0 0 0 0 0 0 0 0 0 0 0 0 0 127 0" result="hardAlpha"/>
<feOffset dy="2"/>
<feGaussianBlur stdDeviation="2.5"/>
<feColorMatrix type="matrix" values="0 0 0 0 0.473529 0 0 0 0 0.0117647 0 0 0 0 0.627451 0 0 0 0.2 0"/>
<feBlend mode="normal" in2="BackgroundImageFix" result="effect1_dropShadow_3484_2416"/>
<feBlend mode="normal" in="SourceGraphic" in2="effect1_dropShadow_3484_2416" result="shape"/>
</filter>
<linearGradient id="paint0_linear_3484_2416" x1="64.7571" y1="62.3745" x2="64.7571" y2="42.1974" gradientUnits="userSpaceOnUse">
<stop stop-color="#E3FDFF"/>
<stop offset="1" stop-color="#F1F5FF"/>
</linearGradient>
<linearGradient id="paint1_linear_3484_2416" x1="30.2643" y1="42.1978" x2="30.2643" y2="62.3748" gradientUnits="userSpaceOnUse">
<stop stop-color="#E3FDFF"/>
<stop offset="1" stop-color="#F1F5FF"/>
</linearGradient>
<linearGradient id="paint2_linear_3484_2416" x1="47.5476" y1="44.4951" x2="47.5476" y2="62.3761" gradientUnits="userSpaceOnUse">
<stop stop-color="#E3FDFF"/>
<stop offset="1" stop-color="#F1F5FF"/>
</linearGradient>
<linearGradient id="paint3_linear_3484_2416" x1="47.5481" y1="25.4932" x2="47.5481" y2="43.9547" gradientUnits="userSpaceOnUse">
<stop stop-color="#E3FDFF"/>
<stop offset="1" stop-color="#F1F5FF"/>
</linearGradient>
</defs>
</svg>
