<svg width="665.639" height="574.791" viewBox="192 -8 665.639 574.791" xml:space="preserve" xmlns="http://www.w3.org/2000/svg"><path stroke="#000" stroke-width="16" stroke-miterlimit="10" d="M200 0v560h560V0Zm541.333 541.333H218.667V18.667h522.667v522.666z" style="display:inline" transform="matrix(1.15562 0 0 .9979 -29.88 -.017)"/><path d="M350.773 456.847v-19.26l46.386-7.124V130.995h-11.106q-49.871 0-70.125 5.277l-5.88 65.698H290.23v-98.943h283.765v98.943h-20.036l-5.88-65.698q-18.075-4.75-71.43-4.75h-10.672v298.94l46.387 7.125v19.26z" style="font-weight:700;font-size:572.232px;font-family:'Liberation Serif';-inkscape-font-specification:'Liberation Serif, Bold';display:inline;stroke-width:.818206" aria-label="T" transform="translate(.887 -.604)"/><path style="font-size:580.433px;font-family:Helvetica;-inkscape-font-specification:'Helvetica, Normal';display:inline;stroke-width:.550947" d="m771.238 104.228.006 58.887-130.636.136-.006-58.887zM771.238 394.228l.006 58.887-130.636.136-.006-58.887zM771.238 248.228l.006 58.887-130.636.136-.006-58.887z" aria-label="I" transform="translate(.887 -.604)"/></svg>
